<?xml version="1.0" encoding="UTF-8"?>
<svg xmlns="http://www.w3.org/2000/svg" xmlns:xlink="http://www.w3.org/1999/xlink" width="77.537mm" height="123.513mm" viewBox="-334.451630 -766.913208 77.536774 123.513184">
    <path transform="matrix(-1,0,0,1,-15.9978,-1409.900024)" style="stroke:#000000;stroke-width:0.05mm;fill:none" d="M310.281006,704.696228L310.011261,710.351746C310.018524,713.949097,309.485474,717.552185,308.407471,721.037842C307.35965,724.495056,305.692444,727.733215,303.486816,730.594238C302.020264,732.510193,300.260223,734.182495,298.271729,735.549072C295.536621,737.475525,292.318146,738.600769,288.978516,738.798096C285.742706,738.96637,282.522278,738.251465,279.661377,736.730225C277.622253,735.624146,275.769958,734.203918,274.173096,732.52124C271.531525,729.69873,269.490021,726.369873,268.171631,722.73584C266.683899,718.658264,265.997864,716.404602,265.993896,710.072021C265.985107,696.03302,265.633881,694.934204,270.786652,681.991028C272.099487,678.693359,274.212372,676.860291,274.816895,675.954834C274.798828,674.642151,273.930145,673.492615,272.671875,673.118164C272.22641,672.997192,271.762817,672.957214,271.302979,672.997559C270.230408,672.993958,269.201263,673.420898,268.446259,674.182739C267.789032,674.824158,265.397736,675.877869,264.064758,678.458923C254.956528,696.095581,256.874268,699.256348,257.570801,719.786133C257.855927,728.190002,259.130341,731.185364,261.369629,736.484375C263.308167,741.185852,266.157593,745.457581,269.753662,749.053467L270.002197,749.29126L270.002197,766.5L306.002197,766.5L306.002197,749.291504C306.817505,748.509094,307.593323,747.686462,308.326904,746.826904C311.053436,743.566528,313.26062,739.905151,314.870361,735.97168C316.981537,730.671509,318.183441,725.083862,318.453827,719.440735L317.900879,692.053223C317.924377,690.286743,316.78653,688.713989,315.10083,688.185303C314.552094,688.027832,313.980957,687.962463,313.410889,687.99292C311.756226,687.977356,310.398346,689.298096,310.371094,690.952637L310.281006,704.696228z"/>
    <path transform="matrix(-1,0,0,-1,0.002197,-0.413208)" style="stroke:#000000;stroke-width:0.05mm;fill:none" d="M310.281006,704.696228L310.011261,710.351746C310.018524,713.949097,309.485474,717.552185,308.407471,721.037842C307.35965,724.495056,305.692444,727.733215,303.486816,730.594238C302.020264,732.510193,300.260223,734.182495,298.271729,735.549072C295.536621,737.475525,292.318146,738.600769,288.978516,738.798096C285.742706,738.96637,282.522278,738.251465,279.661377,736.730225C277.622253,735.624146,275.769958,734.203918,274.173096,732.52124C271.531525,729.69873,269.490021,726.369873,268.171631,722.73584C266.683899,718.658264,265.997864,716.404602,265.993896,710.072021C265.985107,696.03302,265.633881,694.934204,270.786652,681.991028C272.099487,678.693359,274.212372,676.860291,274.816895,675.954834C274.798828,674.642151,273.930145,673.492615,272.671875,673.118164C272.22641,672.997192,271.762817,672.957214,271.302979,672.997559C270.230408,672.993958,269.201263,673.420898,268.446259,674.182739C267.789032,674.824158,265.397736,675.877869,264.064758,678.458923C254.956528,696.095581,256.874268,699.256348,257.570801,719.786133C257.855927,728.190002,259.130341,731.185364,261.369629,736.484375C263.308167,741.185852,266.157593,745.457581,269.753662,749.053467L270.002197,749.29126L270.002197,766.5L306.002197,766.5L306.002197,749.291504C306.817505,748.509094,307.593323,747.686462,308.326904,746.826904C311.053436,743.566528,313.26062,739.905151,314.870361,735.97168C316.981537,730.671509,318.183441,725.083862,318.453827,719.440735L317.900879,692.053223C317.924377,690.286743,316.78653,688.713989,315.10083,688.185303C314.552094,688.027832,313.980957,687.962463,313.410889,687.99292C311.756226,687.977356,310.398346,689.298096,310.371094,690.952637L310.281006,704.696228z"/>
    <circle transform="matrix(-1,0,0,-1,-295.683228,-758)" style="stroke:#000000;stroke-width:0.05mm;fill:none" r="2" cx="0" cy="0"/>
    <circle transform="matrix(-1,0,0,-1,-279.683228,-758)" style="stroke:#000000;stroke-width:0.05mm;fill:none" r="2" cx="0" cy="0"/>
    <circle transform="matrix(-1,0,0,-1,-311.683228,-652.400024)" style="stroke:#000000;stroke-width:0.05mm;fill:none" r="2" cx="0" cy="0"/>
    <circle transform="matrix(-1,0,0,-1,-295.683228,-652.400024)" style="stroke:#000000;stroke-width:0.05mm;fill:none" r="2" cx="0" cy="0"/>
</svg>
